<?xml version="1.0" encoding="UTF-8"?>
<svg id="Layer_1" data-name="Layer 1" xmlns="http://www.w3.org/2000/svg" viewBox="0 0 1383.25 201.1">
  <defs>
    <style>
      .cls-1 {
        opacity: .18;
      }

      .cls-2 {
        stroke: #5ea83b;
      }

      .cls-2, .cls-3, .cls-4 {
        fill: #fff;
      }

      .cls-2, .cls-5, .cls-4 {
        stroke-linecap: round;
        stroke-linejoin: round;
        stroke-width: 41px;
      }

      .cls-6 {
        opacity: .28;
      }

      .cls-7 {
        fill: #5ea83b;
      }

      .cls-7, .cls-8, .cls-9, .cls-3 {
        stroke-width: 0px;
      }

      .cls-9 {
        fill: #ccc;
      }

      .cls-5 {
        stroke: #000;
      }

      .cls-4 {
        stroke: #4b842d;
      }
    </style>
  </defs>
  <g class="cls-6">
    <path class="cls-5" d="M20.5,39.27h59.38c35.03,0,57.6,18.01,57.6,48.69v.4c0,32.66-25.14,49.88-59.58,49.88h-19v39.59H20.5V39.27ZM77.11,108.15c13.66,0,21.97-7.13,21.97-18.01v-.4c0-11.88-8.31-18.21-22.17-18.21h-18.01v36.62h18.21Z"/>
    <path class="cls-5" d="M153.71,39.27h38.4v104.91h67.1v33.65h-105.5V39.27Z"/>
    <path class="cls-5" d="M323.55,38.28h37.01l58.99,139.55h-41.17l-10.09-24.74h-53.44l-9.9,24.74h-40.38l58.99-139.55ZM357.2,123.2l-15.44-39.39-15.64,39.39h31.08Z"/>
    <path class="cls-5" d="M433.01,39.27h35.83l57.01,73.24V39.27h38v138.56h-33.65l-59.18-76.01v76.01h-38V39.27Z"/>
    <path class="cls-5" d="M622.24,72.92h-41.57v-33.65h121.53v33.65h-41.57v104.91h-38.4v-104.91Z"/>
    <path class="cls-5" d="M749.12,38.28h37.01l58.98,139.55h-41.17l-10.09-24.74h-53.44l-9.9,24.74h-40.38l58.99-139.55ZM782.77,123.2l-15.44-39.39-15.64,39.39h31.08Z"/>
    <path class="cls-5" d="M846.12,157.24l21.38-25.53c13.66,10.89,28.9,16.63,44.93,16.63,10.29,0,15.83-3.56,15.83-9.5v-.4c0-5.74-4.55-8.91-23.36-13.26-29.49-6.73-52.25-15.04-52.25-43.55v-.4c0-25.73,20.39-44.34,53.64-44.34,23.55,0,41.96,6.33,57.01,18.41l-19.2,27.12c-12.67-8.91-26.52-13.66-38.8-13.66-9.3,0-13.86,3.96-13.86,8.91v.4c0,6.33,4.75,9.1,23.95,13.46,31.87,6.93,51.66,17.22,51.66,43.15v.4c0,28.31-22.37,45.13-56.02,45.13-24.54,0-47.9-7.72-64.92-22.96Z"/>
    <path class="cls-5" d="M1015.56,72.92h-41.57v-33.65h121.53v33.65h-41.57v104.91h-38.4v-104.91Z"/>
    <path class="cls-5" d="M1113.14,39.27h38.6v138.56h-38.6V39.27Z"/>
    <path class="cls-5" d="M1172.33,108.94v-.4c0-40.38,31.08-72.05,73.04-72.05,28.3,0,46.51,11.88,58.79,28.9l-28.9,22.37c-7.92-9.9-17.02-16.23-30.29-16.23-19.4,0-33.05,16.43-33.05,36.62v.4c0,20.78,13.66,37.01,33.05,37.01,14.45,0,22.96-6.73,31.27-16.82l28.9,20.59c-13.06,18.01-30.68,31.27-61.36,31.27-39.59,0-71.46-30.28-71.46-71.65Z"/>
    <path class="cls-5" d="M1319.99,56.1v-16.82h42.75v16.82l-11.48,76.6h-19.79l-11.48-76.6ZM1321.78,144.18h39.19v33.65h-39.19v-33.65Z"/>
  </g>
  <g>
    <path class="cls-4" d="M20.5,33.27h59.38c35.03,0,57.6,18.01,57.6,48.69v.4c0,32.66-25.14,49.88-59.58,49.88h-19v39.59H20.5V33.27ZM77.11,102.15c13.66,0,21.97-7.13,21.97-18.01v-.4c0-11.88-8.31-18.21-22.17-18.21h-18.01v36.62h18.21Z"/>
    <path class="cls-4" d="M153.71,33.27h38.4v104.91h67.1v33.65h-105.5V33.27Z"/>
    <path class="cls-4" d="M323.55,32.28h37.01l58.99,139.55h-41.17l-10.09-24.74h-53.44l-9.9,24.74h-40.38l58.99-139.55ZM357.2,117.2l-15.44-39.39-15.64,39.39h31.08Z"/>
    <path class="cls-4" d="M433.01,33.27h35.83l57.01,73.24V33.27h38v138.56h-33.65l-59.18-76.01v76.01h-38V33.27Z"/>
    <path class="cls-4" d="M622.24,66.92h-41.57v-33.65h121.53v33.65h-41.57v104.91h-38.4v-104.91Z"/>
    <path class="cls-4" d="M749.12,32.28h37.01l58.98,139.55h-41.17l-10.09-24.74h-53.44l-9.9,24.74h-40.38l58.99-139.55ZM782.77,117.2l-15.44-39.39-15.64,39.39h31.08Z"/>
    <path class="cls-4" d="M846.12,151.24l21.38-25.53c13.66,10.89,28.9,16.63,44.93,16.63,10.29,0,15.83-3.56,15.83-9.5v-.4c0-5.74-4.55-8.91-23.36-13.26-29.49-6.73-52.25-15.04-52.25-43.55v-.4c0-25.73,20.39-44.34,53.64-44.34,23.55,0,41.96,6.33,57.01,18.41l-19.2,27.12c-12.67-8.91-26.52-13.66-38.8-13.66-9.3,0-13.86,3.96-13.86,8.91v.4c0,6.33,4.75,9.1,23.95,13.46,31.87,6.93,51.66,17.22,51.66,43.15v.4c0,28.31-22.37,45.13-56.02,45.13-24.54,0-47.9-7.72-64.92-22.96Z"/>
    <path class="cls-4" d="M1015.56,66.92h-41.57v-33.65h121.53v33.65h-41.57v104.91h-38.4v-104.91Z"/>
    <path class="cls-4" d="M1113.14,33.27h38.6v138.56h-38.6V33.27Z"/>
    <path class="cls-4" d="M1172.33,102.94v-.4c0-40.38,31.08-72.05,73.04-72.05,28.3,0,46.51,11.88,58.79,28.9l-28.9,22.37c-7.92-9.9-17.02-16.23-30.29-16.23-19.4,0-33.05,16.43-33.05,36.62v.4c0,20.78,13.66,37.01,33.05,37.01,14.45,0,22.96-6.73,31.27-16.82l28.9,20.59c-13.06,18.01-30.68,31.27-61.36,31.27-39.59,0-71.46-30.28-71.46-71.65Z"/>
    <path class="cls-4" d="M1319.99,50.1v-16.82h42.75v16.82l-11.48,76.6h-19.79l-11.48-76.6ZM1321.78,138.18h39.19v33.65h-39.19v-33.65Z"/>
  </g>
  <g>
    <path class="cls-2" d="M20.5,23.27h59.38c35.03,0,57.6,18.01,57.6,48.69v.4c0,32.66-25.14,49.88-59.58,49.88h-19v39.59H20.5V23.27ZM77.11,92.15c13.66,0,21.97-7.13,21.97-18.01v-.4c0-11.88-8.31-18.21-22.17-18.21h-18.01v36.62h18.21Z"/>
    <path class="cls-2" d="M153.71,23.27h38.4v104.91h67.1v33.65h-105.5V23.27Z"/>
    <path class="cls-2" d="M323.55,22.28h37.01l58.99,139.55h-41.17l-10.09-24.74h-53.44l-9.9,24.74h-40.38l58.99-139.55ZM357.2,107.2l-15.44-39.39-15.64,39.39h31.08Z"/>
    <path class="cls-2" d="M433.01,23.27h35.83l57.01,73.24V23.27h38v138.56h-33.65l-59.18-76.01v76.01h-38V23.27Z"/>
    <path class="cls-2" d="M622.24,56.92h-41.57V23.27h121.53v33.65h-41.57v104.91h-38.4V56.92Z"/>
    <path class="cls-2" d="M749.12,22.28h37.01l58.98,139.55h-41.17l-10.09-24.74h-53.44l-9.9,24.74h-40.38l58.99-139.55ZM782.77,107.2l-15.44-39.39-15.64,39.39h31.08Z"/>
    <path class="cls-2" d="M846.12,141.24l21.38-25.53c13.66,10.89,28.9,16.63,44.93,16.63,10.29,0,15.83-3.56,15.83-9.5v-.4c0-5.74-4.55-8.91-23.36-13.26-29.49-6.73-52.25-15.04-52.25-43.55v-.4c0-25.73,20.39-44.34,53.64-44.34,23.55,0,41.96,6.33,57.01,18.41l-19.2,27.12c-12.67-8.91-26.52-13.66-38.8-13.66-9.3,0-13.86,3.96-13.86,8.91v.4c0,6.33,4.75,9.1,23.95,13.46,31.87,6.93,51.66,17.22,51.66,43.15v.4c0,28.31-22.37,45.13-56.02,45.13-24.54,0-47.9-7.72-64.92-22.96Z"/>
    <path class="cls-2" d="M1015.56,56.92h-41.57V23.27h121.53v33.65h-41.57v104.91h-38.4V56.92Z"/>
    <path class="cls-2" d="M1113.14,23.27h38.6v138.56h-38.6V23.27Z"/>
    <path class="cls-2" d="M1172.33,92.94v-.4c0-40.38,31.08-72.05,73.04-72.05,28.3,0,46.51,11.88,58.79,28.9l-28.9,22.37c-7.92-9.9-17.02-16.23-30.29-16.23-19.4,0-33.05,16.43-33.05,36.62v.4c0,20.78,13.66,37.01,33.05,37.01,14.45,0,22.96-6.73,31.27-16.82l28.9,20.59c-13.06,18.01-30.68,31.27-61.36,31.27-39.59,0-71.46-30.28-71.46-71.65Z"/>
    <path class="cls-2" d="M1319.99,40.1v-16.82h42.75v16.82l-11.48,76.6h-19.79l-11.48-76.6ZM1321.78,128.18h39.19v33.65h-39.19v-33.65Z"/>
  </g>
  <polygon class="cls-7" points="841.13 83.81 827.73 89.5 841.13 120.16 857.6 107.2 841.13 83.81"/>
  <rect class="cls-7" x="1228.71" y="71.98" width="46.16" height="38.39"/>
  <g class="cls-1">
    <path class="cls-8" d="M20.5,30.27h59.38c35.03,0,57.6,18.01,57.6,48.69v.4c0,32.66-25.14,49.88-59.58,49.88h-19v39.59H20.5V30.27ZM77.11,99.15c13.66,0,21.97-7.13,21.97-18.01v-.4c0-11.88-8.31-18.21-22.17-18.21h-18.01v36.62h18.21Z"/>
    <path class="cls-8" d="M153.71,30.27h38.4v104.91h67.1v33.65h-105.5V30.27Z"/>
    <path class="cls-8" d="M323.55,29.28h37.01l58.99,139.55h-41.17l-10.09-24.74h-53.44l-9.9,24.74h-40.38l58.99-139.55ZM357.2,114.2l-15.44-39.39-15.64,39.39h31.08Z"/>
    <path class="cls-8" d="M433.01,30.27h35.83l57.01,73.24V30.27h38v138.56h-33.65l-59.18-76.01v76.01h-38V30.27Z"/>
    <path class="cls-8" d="M622.24,63.92h-41.57V30.27h121.53v33.65h-41.57v104.91h-38.4V63.92Z"/>
    <path class="cls-8" d="M749.12,29.28h37.01l58.98,139.55h-41.17l-10.09-24.74h-53.44l-9.9,24.74h-40.38l58.99-139.55ZM782.77,114.2l-15.44-39.39-15.64,39.39h31.08Z"/>
    <path class="cls-8" d="M846.12,148.24l21.38-25.53c13.66,10.89,28.9,16.63,44.93,16.63,10.29,0,15.83-3.56,15.83-9.5v-.4c0-5.74-4.55-8.91-23.36-13.26-29.49-6.73-52.25-15.04-52.25-43.55v-.4c0-25.73,20.39-44.34,53.64-44.34,23.55,0,41.96,6.33,57.01,18.41l-19.2,27.12c-12.67-8.91-26.52-13.66-38.8-13.66-9.3,0-13.86,3.96-13.86,8.91v.4c0,6.33,4.75,9.1,23.95,13.46,31.87,6.93,51.66,17.22,51.66,43.15v.4c0,28.31-22.37,45.13-56.02,45.13-24.54,0-47.9-7.72-64.92-22.96Z"/>
    <path class="cls-8" d="M1015.56,63.92h-41.57V30.27h121.53v33.65h-41.57v104.91h-38.4V63.92Z"/>
    <path class="cls-8" d="M1113.14,30.27h38.6v138.56h-38.6V30.27Z"/>
    <path class="cls-8" d="M1172.33,99.94v-.4c0-40.38,31.08-72.05,73.04-72.05,28.3,0,46.51,11.88,58.79,28.9l-28.9,22.37c-7.92-9.9-17.02-16.23-30.29-16.23-19.4,0-33.05,16.43-33.05,36.62v.4c0,20.78,13.66,37.01,33.05,37.01,14.45,0,22.96-6.73,31.27-16.82l28.9,20.59c-13.06,18.01-30.68,31.27-61.36,31.27-39.59,0-71.46-30.28-71.46-71.65Z"/>
    <path class="cls-8" d="M1319.99,47.1v-16.82h42.75v16.82l-11.48,76.6h-19.79l-11.48-76.6ZM1321.78,135.18h39.19v33.65h-39.19v-33.65Z"/>
  </g>
  <g>
    <path class="cls-9" d="M20.5,25.27h59.38c35.03,0,57.6,18.01,57.6,48.69v.4c0,32.66-25.14,49.88-59.58,49.88h-19v39.59H20.5V25.27ZM77.11,94.15c13.66,0,21.97-7.13,21.97-18.01v-.4c0-11.88-8.31-18.21-22.17-18.21h-18.01v36.62h18.21Z"/>
    <path class="cls-9" d="M153.71,25.27h38.4v104.91h67.1v33.65h-105.5V25.27Z"/>
    <path class="cls-9" d="M323.55,24.28h37.01l58.99,139.55h-41.17l-10.09-24.74h-53.44l-9.9,24.74h-40.38l58.99-139.55ZM357.2,109.2l-15.44-39.39-15.64,39.39h31.08Z"/>
    <path class="cls-9" d="M433.01,25.27h35.83l57.01,73.24V25.27h38v138.56h-33.65l-59.18-76.01v76.01h-38V25.27Z"/>
    <path class="cls-9" d="M622.24,58.92h-41.57V25.27h121.53v33.65h-41.57v104.91h-38.4V58.92Z"/>
    <path class="cls-9" d="M749.12,24.28h37.01l58.98,139.55h-41.17l-10.09-24.74h-53.44l-9.9,24.74h-40.38l58.99-139.55ZM782.77,109.2l-15.44-39.39-15.64,39.39h31.08Z"/>
    <path class="cls-9" d="M846.12,143.24l21.38-25.53c13.66,10.89,28.9,16.63,44.93,16.63,10.29,0,15.83-3.56,15.83-9.5v-.4c0-5.74-4.55-8.91-23.36-13.26-29.49-6.73-52.25-15.04-52.25-43.55v-.4c0-25.73,20.39-44.34,53.64-44.34,23.55,0,41.96,6.33,57.01,18.41l-19.2,27.12c-12.67-8.91-26.52-13.66-38.8-13.66-9.3,0-13.86,3.96-13.86,8.91v.4c0,6.33,4.75,9.1,23.95,13.46,31.87,6.93,51.66,17.22,51.66,43.15v.4c0,28.31-22.37,45.13-56.02,45.13-24.54,0-47.9-7.72-64.92-22.96Z"/>
    <path class="cls-9" d="M1015.56,58.92h-41.57V25.27h121.53v33.65h-41.57v104.91h-38.4V58.92Z"/>
    <path class="cls-9" d="M1113.14,25.27h38.6v138.56h-38.6V25.27Z"/>
    <path class="cls-9" d="M1172.33,94.94v-.4c0-40.38,31.08-72.05,73.04-72.05,28.3,0,46.51,11.88,58.79,28.9l-28.9,22.37c-7.92-9.9-17.02-16.23-30.29-16.23-19.4,0-33.05,16.43-33.05,36.62v.4c0,20.78,13.66,37.01,33.05,37.01,14.45,0,22.96-6.73,31.27-16.82l28.9,20.59c-13.06,18.01-30.68,31.27-61.36,31.27-39.59,0-71.46-30.28-71.46-71.65Z"/>
    <path class="cls-9" d="M1319.99,42.1v-16.82h42.75v16.82l-11.48,76.6h-19.79l-11.48-76.6ZM1321.78,130.18h39.19v33.65h-39.19v-33.65Z"/>
  </g>
  <g>
    <path class="cls-3" d="M20.5,19.27h59.38c35.03,0,57.6,18.01,57.6,48.69v.4c0,32.66-25.14,49.88-59.58,49.88h-19v39.59H20.5V19.27ZM77.11,88.15c13.66,0,21.97-7.13,21.97-18.01v-.4c0-11.88-8.31-18.21-22.17-18.21h-18.01v36.62h18.21Z"/>
    <path class="cls-3" d="M153.71,19.27h38.4v104.91h67.1v33.65h-105.5V19.27Z"/>
    <path class="cls-3" d="M323.55,18.28h37.01l58.99,139.55h-41.17l-10.09-24.74h-53.44l-9.9,24.74h-40.38l58.99-139.55ZM357.2,103.2l-15.44-39.39-15.64,39.39h31.08Z"/>
    <path class="cls-3" d="M433.01,19.27h35.83l57.01,73.24V19.27h38v138.56h-33.65l-59.18-76.01v76.01h-38V19.27Z"/>
    <path class="cls-3" d="M622.24,52.92h-41.57V19.27h121.53v33.65h-41.57v104.91h-38.4V52.92Z"/>
    <path class="cls-3" d="M749.12,18.28h37.01l58.98,139.55h-41.17l-10.09-24.74h-53.44l-9.9,24.74h-40.38l58.99-139.55ZM782.77,103.2l-15.44-39.39-15.64,39.39h31.08Z"/>
    <path class="cls-3" d="M846.12,137.24l21.38-25.53c13.66,10.89,28.9,16.63,44.93,16.63,10.29,0,15.83-3.56,15.83-9.5v-.4c0-5.74-4.55-8.91-23.36-13.26-29.49-6.73-52.25-15.04-52.25-43.55v-.4c0-25.73,20.39-44.34,53.64-44.34,23.55,0,41.96,6.33,57.01,18.41l-19.2,27.12c-12.67-8.91-26.52-13.66-38.8-13.66-9.3,0-13.86,3.96-13.86,8.91v.4c0,6.33,4.75,9.1,23.95,13.46,31.87,6.93,51.66,17.22,51.66,43.15v.4c0,28.31-22.37,45.13-56.02,45.13-24.54,0-47.9-7.72-64.92-22.96Z"/>
    <path class="cls-3" d="M1015.56,52.92h-41.57V19.27h121.53v33.65h-41.57v104.91h-38.4V52.92Z"/>
    <path class="cls-3" d="M1113.14,19.27h38.6v138.56h-38.6V19.27Z"/>
    <path class="cls-3" d="M1172.33,88.94v-.4c0-40.38,31.08-72.05,73.04-72.05,28.3,0,46.51,11.88,58.79,28.9l-28.9,22.37c-7.92-9.9-17.02-16.23-30.29-16.23-19.4,0-33.05,16.43-33.05,36.62v.4c0,20.78,13.66,37.01,33.05,37.01,14.45,0,22.96-6.73,31.27-16.82l28.9,20.59c-13.06,18.01-30.68,31.27-61.36,31.27-39.59,0-71.46-30.28-71.46-71.65Z"/>
    <path class="cls-3" d="M1319.99,36.1v-16.82h42.75v16.82l-11.48,76.6h-19.79l-11.48-76.6ZM1321.78,124.18h39.19v33.65h-39.19v-33.65Z"/>
  </g>
</svg>